<?xml version="1.0" encoding="utf-8"?>
<!-- Generator: Adobe Illustrator 27.6.1, SVG Export Plug-In . SVG Version: 6.00 Build 0)  -->
<svg version="1.1" id="Group_23" xmlns="http://www.w3.org/2000/svg" xmlns:xlink="http://www.w3.org/1999/xlink" x="0px" y="0px"
	 viewBox="0 0 209.3 57.9" style="enable-background:new 0 0 209.3 57.9;" xml:space="preserve">
<style type="text/css">
	.st0{fill:#000001;}
	.st1{font-family:'Meiryo-Bold';}
	.st2{font-size:42px;}
</style>
<symbol  id="半袖シャツ" viewBox="-13.6 -17.1 27.3 34.2">
	<path class="st0" d="M4.5,16.7l1.4-1.2c0,0,1.6-0.2,2.6-0.2c1,0,2.9-0.5,3.2-1.7c0.3-1.2,1.8-7.8,1.9-8.2C13.7,5,11.8,4,9.8,4.3
		C9.2,4.6,9.2,4.6,9.2,4.6S9.1,3.7,8.7,3.2C8.4,2.6,7.4,1.2,7.6,0c0.2-1.2,0.2-4.9,0.7-6.3c0.5-1.4,1.4-7.8,1.3-8.9
		c-0.1-0.3-0.5-1.1-1.7-1.3C6.7-16.8,0-17.3-3-17c-3,0.2-6.5,1.3-6.5,1.3s0.4,4,0.5,5.1c0.2,1.1,0.8,2.8,1.1,3.7
		C-7.6-5.9-7-3.1-7-2.4s-1.1,3.6-1.2,4.3c-0.2,0.7-0.6,2.5-0.5,3.3c0.1,0.8,0.1,1.4,0.1,1.4l-0.5-1.4c0,0-3.3-0.3-4.4,0.6
		c0.3,2.2,1.6,6.1,1.8,6.8c0.2,0.7,0.8,1.2,1.7,1.8c0.9,0.5,1.9,0.9,2.6,0.9c0.8,0.1,1.4,0,1.8,0.4c0.4,0.4,1.2,1.4,1.2,1.4
		s1.9-2.4,2.4-2.9c0.5-0.5,1.9-1.2,3.4-0.9c1.5,0.3,2.6,1,2.9,1.6C4.5,15.6,4.5,16.7,4.5,16.7z"/>
</symbol>
<text transform="matrix(1 0 0 1 51.629 42.9818)" class="st1 st2">sakaue</text>
<use xlink:href="#半袖シャツ"  width="27.3" height="34.2" x="-13.6" y="-17.1" transform="matrix(1 0 0 -1 27.8231 28.9491)" style="overflow:visible;"/>
</svg>
