<?xml version="1.0" standalone="no"?>
<!DOCTYPE svg PUBLIC "-//W3C//DTD SVG 20010904//EN"
 "http://www.w3.org/TR/2001/REC-SVG-20010904/DTD/svg10.dtd">
<svg version="1.0" xmlns="http://www.w3.org/2000/svg"
 width="260.000000pt" height="260.000000pt" viewBox="0 0 260.000000 260.000000"
 preserveAspectRatio="xMidYMid meet">
<metadata>
Created by potrace 1.14, written by Peter Selinger 2001-2017
</metadata>
<g transform="translate(0.000000,260.000000) scale(0.100000,-0.100000)"
fill="#000000" stroke="none">
<path d="M891 2516 c-51 -65 -54 -67 -182 -80 -90 -10 -211 -68 -274 -133 -24
-24 -41 -57 -56 -107 -12 -39 -28 -90 -35 -113 -19 -60 -84 -327 -84 -346 0
-22 29 -36 108 -51 62 -11 207 -15 215 -5 2 2 11 22 20 44 l16 40 0 -70 c0
-117 12 -175 79 -385 28 -89 46 -164 47 -195 0 -93 -26 -215 -86 -400 -22 -68
-42 -134 -44 -146 -10 -49 -31 -228 -41 -339 -3 -41 -8 -78 -11 -83 -2 -4 11
-14 29 -21 36 -15 278 -70 368 -83 68 -10 488 -10 630 0 297 21 323 28 374 88
29 35 30 61 1 284 -9 73 -17 132 -21 155 -2 14 -7 40 -10 59 -15 91 -24 130
-45 201 -24 85 -30 132 -44 361 -4 53 -8 105 -9 115 -5 31 23 114 64 189 21
39 43 86 49 106 12 36 12 36 46 25 88 -31 298 30 290 84 -5 30 -86 388 -99
435 -2 6 -6 28 -10 50 -18 90 -40 149 -65 173 -39 37 -107 62 -180 67 -137 9
-216 18 -221 24 -3 4 -25 23 -50 43 l-46 37 -18 -70 c-16 -64 -22 -73 -64
-105 -53 -38 -156 -74 -217 -76 -123 -2 -192 47 -350 246 l-31 38 -43 -56z"/>
</g>
</svg>
